<svg xmlns="http://www.w3.org/2000/svg" viewBox="0 0 24 24"><path fill="#0078D4" d="M24 7.387v10.478c0 .23-.08.424-.238.582a.793.793 0 0 1-.582.238h-8.86V6.567h8.86c.23 0 .424.08.582.238.158.158.238.352.238.582zM14.32 3.07v17.86L0 18.293V5.707L14.32 3.07zm-3.174 6.76a3.233 3.233 0 0 0-1.213-1.356 3.312 3.312 0 0 0-1.81-.517c-.71 0-1.33.173-1.862.517a3.36 3.36 0 0 0-1.236 1.387c-.293.582-.44 1.236-.44 1.963 0 .687.14 1.318.418 1.893.278.575.678 1.03 1.198 1.364.521.334 1.127.501 1.82.501.716 0 1.34-.17 1.872-.509a3.327 3.327 0 0 0 1.224-1.374c.287-.58.43-1.222.43-1.929 0-.703-.134-1.345-.4-1.94zm-1.55 3.294c-.186.395-.435.694-.748.898a1.862 1.862 0 0 1-1.035.305c-.389 0-.74-.102-1.053-.305a2.1 2.1 0 0 1-.74-.898 3.12 3.12 0 0 1-.266-1.322c0-.488.085-.93.255-1.328.17-.398.413-.71.729-.936a1.83 1.83 0 0 1 1.075-.34c.395 0 .746.11 1.053.329.308.22.548.533.722.94.174.407.261.862.261 1.365 0 .5-.084.952-.253 1.292z"/></svg>