<svg xmlns="http://www.w3.org/2000/svg" viewBox="0 0 24 24"><path fill="#5059C9" d="M20.625 5.25a2.625 2.625 0 1 1-5.25 0 2.625 2.625 0 0 1 5.25 0z"/><path fill="#5059C9" d="M22.5 8.625h-5.25a.375.375 0 0 0-.375.375v6.75a3.75 3.75 0 0 0 3.75 3.75h.375A2.625 2.625 0 0 0 23.625 16.875V10.5A1.875 1.875 0 0 0 22.5 8.625z"/><path fill="#7B83EB" d="M15.375 4.125a3.375 3.375 0 1 1-6.75 0 3.375 3.375 0 0 1 6.75 0z"/><path fill="#7B83EB" d="M18 9h-12a1.5 1.5 0 0 0-1.5 1.5v6.375a5.625 5.625 0 0 0 11.25 0V10.5A1.5 1.5 0 0 0 18 9z"/><path fill="#4B53BC" d="M12.375 9H4.5A1.5 1.5 0 0 0 3 10.5v6.375a5.614 5.614 0 0 0 3.004 4.975A5.625 5.625 0 0 0 15.75 16.875V10.5c0-.117-.014-.231-.04-.341A1.499 1.499 0 0 0 14.25 9h-1.875z" opacity=".1"/></svg>